<svg width="47" height="47" viewBox="0 0 47 47" fill="none" xmlns="http://www.w3.org/2000/svg" aria-label="World mobile" class="logo" data-v-8d3ec376=""><g clip-path="url(#world-mobile_svg__clip0_3825_814)"><path d="M43.246 29.701h-27.58l-1.631 5.222h23.718a18.265 18.265 0 01-31.447-5.222H.832C3.56 39.656 12.688 47 23.5 47S43.44 39.656 46.168 29.7h-2.922z" fill="url(#world-mobile_svg__paint0_linear_3825_814)"></path><path d="M44.03 12.076H20.726l-1.632 5.222h21.599a18.17 18.17 0 011.085 6.202c0 .873-.063 1.746-.188 2.61h5.265c.096-.866.145-1.738.145-2.61.004-4-1.019-7.933-2.97-11.424z" fill="url(#world-mobile_svg__paint1_linear_3825_814)"></path><path d="M23.5 5.222a18.18 18.18 0 0110.867 3.59h7.463A23.463 23.463 0 0023.5 0C10.542 0 0 10.542 0 23.5c0 .872.049 1.744.145 2.611H28.07l1.632-5.222H5.41A18.307 18.307 0 0123.5 5.222z" fill="url(#world-mobile_svg__paint2_linear_3825_814)"></path></g><defs><linearGradient id="world-mobile_svg__paint0_linear_3825_814" x1="11.079" y1="19.454" x2="35.921" y2="44.296" gradientUnits="userSpaceOnUse"><stop stop-color="#AA64F1"></stop><stop offset="1" stop-color="#363770"></stop></linearGradient><linearGradient id="world-mobile_svg__paint1_linear_3825_814" x1="24.838" y1="7.964" x2="44.919" y2="28.045" gradientUnits="userSpaceOnUse"><stop stop-color="#FFBF6B"></stop><stop offset="1" stop-color="#F38220"></stop></linearGradient><linearGradient id="world-mobile_svg__paint2_linear_3825_814" x1="11.435" y1="3.3" x2="27.213" y2="26.689" gradientUnits="userSpaceOnUse"><stop stop-color="#FF2B8A"></stop><stop offset="1" stop-color="#D01B6C"></stop></linearGradient><clipPath id="world-mobile_svg__clip0_3825_814"><path fill="#fff" d="M0 0h47v47H0z"></path></clipPath></defs></svg>